<?xml version="1.0" encoding="UTF-8" standalone="no"?>
<svg
   version="1.1"
   width="227.28899pt"
   height="18.316303pt"
   viewBox="0 0 227.28898 18.316304"
   id="svg117"
   xmlns="http://www.w3.org/2000/svg"
   xmlns:svg="http://www.w3.org/2000/svg">
  <defs
     id="defs4" />
  <path
     d="m -351.88057,55.561304 h 612.284 v -94.97 h -612.284 z"
     fill="#00bbd6"
     id="path5" />
  <text
     fill="#ffffff"
     xml:space="preserve"
     font-size="7.5px"
     font-family="Montserrat"
     font-weight="bold"
     id="text11"
     x="-378.88058"
     y="114.7253"><tspan
       y="5.3400049"
       x="-0.029988322 6.2325239 13.777537 20.317545 24.00004 32.655041 40.05003 46.402538 50.445049 57.390057 64.785042 70.860054 74.542549 81.465065 89.310066 97.965065 104.6558 112.05079 119.5958 126.29331 129.97581 136.23833 143.78331 150.91655 157.17906 160.86156 166.93657 170.97905 177.25652 183.51903 190.05901 197.60399 203.95647 207.63896 214.1115 221.95647"
       id="tspan11">THE MUSICAL COMPANY THAT LISTENS YOU</tspan></text>
  <path
     stroke-width="1.25"
     stroke-linecap="butt"
     stroke-miterlimit="10"
     stroke-linejoin="miter"
     fill="none"
     stroke="#ffffff"
     d="m -351.88057,-76.684096 h -27 m 639.283,0 h 27 m -639.283,155.906 h -27 m 639.283,0 h 27 m -630.779,-164.41 V -112.1881 m 0,199.913004 V 114.7249 m 595.276,-199.912996 V -112.1881 m 0,199.913004 V 114.7249"
     id="path64" />
  <path
     stroke-width="0.25"
     stroke-linecap="butt"
     stroke-miterlimit="10"
     stroke-linejoin="miter"
     fill="none"
     stroke="#000000"
     d="m -351.88057,-76.684096 h -27 m 639.283,0 h 27 m -639.283,155.906 h -27 m 639.283,0 h 27 m -630.779,-164.41 V -112.1881 m 0,199.913004 V 114.7249 m 595.276,-199.912996 V -112.1881 m 0,199.913004 V 114.7249"
     id="path65" />
  <text
     xml:space="preserve"
     style="font-style:italic;font-variant:normal;font-weight:300;font-stretch:normal;font-size:7px;line-height:0;font-family:Montserrat;-inkscape-font-specification:'Montserrat Light Italic';font-variant-ligatures:normal;font-variant-caps:normal;font-variant-numeric:normal;font-variant-east-asian:normal;letter-spacing:0px;word-spacing:0px;fill:none;stroke:#ffffff;stroke-width:0;stroke-dasharray:none"
     x="1.3809004"
     y="18.281313"
     id="text117"><tspan
       id="tspan117"
       style="font-style:italic;font-variant:normal;font-weight:300;font-stretch:normal;font-family:Montserrat;-inkscape-font-specification:'Montserrat Light Italic';fill:#ffffff;fill-opacity:1;stroke:none;stroke-width:0;stroke-dasharray:none"
       x="1.3809004"
       y="18.281313">F R O M   B R A S Í L I A  T O  T H E  W O R L D</tspan></text>
</svg>
